<?xml version="1.0" standalone="no"?>
<!DOCTYPE svg PUBLIC "-//W3C//DTD SVG 20010904//EN"
 "http://www.w3.org/TR/2001/REC-SVG-20010904/DTD/svg10.dtd">
<svg version="1.0" xmlns="http://www.w3.org/2000/svg"
 width="286.000000pt" height="286.000000pt" viewBox="0 0 286.000000 286.000000"
 preserveAspectRatio="xMidYMid meet">
<metadata>
Created by potrace 1.14, written by Peter Selinger 2001-2017
</metadata>
<g transform="translate(0.000000,286.000000) scale(0.100000,-0.100000)"
fill="#000000" stroke="none">
<path d="M629 2366 c-2 -2 -17 -6 -34 -9 -151 -27 -272 -85 -367 -178 -39 -38
-68 -69 -64 -69 4 0 -1 -12 -12 -27 -48 -69 -72 -207 -53 -308 24 -128 101
-231 238 -318 76 -47 117 -67 346 -162 166 -69 253 -116 240 -130 -5 -4 -3 -5
3 -2 12 7 49 -30 77 -75 25 -40 23 -133 -4 -183 -23 -43 -58 -85 -68 -82 -3 1
-17 -6 -31 -15 -52 -35 -138 -49 -300 -49 -85 0 -166 2 -180 5 -14 2 -47 7
-75 11 -27 3 -92 17 -144 31 -92 25 -94 25 -113 7 -15 -15 -19 -35 -20 -104
-2 -112 6 -144 40 -157 101 -39 371 -67 558 -59 274 13 451 89 579 247 66 82
97 231 75 362 -34 199 -179 328 -517 458 -46 17 -83 36 -83 41 0 6 -5 7 -10 4
-14 -8 -174 70 -208 102 -15 14 -34 30 -42 37 -56 41 -78 155 -42 219 24 45
70 87 117 108 106 47 362 47 560 -1 56 -13 102 -12 112 2 12 21 4 221 -10 235
-11 12 -108 35 -202 49 -42 6 -360 15 -366 10z"/>
<path d="M1260 2342 c-31 -10 -33 -22 -15 -111 2 -12 8 -28 13 -35 8 -9 36
-94 47 -141 1 -5 6 -21 12 -35 22 -57 75 -213 109 -325 20 -66 39 -124 43
-130 7 -10 34 -91 37 -110 0 -5 6 -21 11 -35 6 -14 21 -59 33 -100 12 -41 27
-84 31 -95 9 -19 178 -523 178 -528 0 -1 4 -15 10 -30 6 -16 11 -35 11 -42 0
-27 43 -97 64 -104 12 -4 88 -6 169 -5 167 2 175 5 196 76 7 23 18 53 24 67 5
14 10 29 9 34 -1 4 3 7 9 7 6 0 9 6 6 13 -3 8 3 33 13 55 11 23 17 42 15 42
-4 0 31 102 44 128 5 9 24 65 42 125 18 59 37 107 42 107 4 0 6 4 2 10 -3 5 7
44 23 87 36 98 40 109 114 333 33 102 66 188 72 192 6 4 7 10 3 14 -4 4 -2 13
4 21 6 7 9 13 6 13 -3 0 4 24 15 53 11 28 20 58 21 65 0 6 3 12 7 12 4 0 7 6
7 13 1 20 85 271 95 284 16 20 4 57 -22 70 -32 16 -243 12 -264 -6 -8 -6 -17
-23 -20 -36 -3 -13 -11 -37 -18 -52 -6 -15 -12 -32 -12 -38 -1 -5 -12 -41 -26
-80 -13 -38 -25 -73 -26 -77 -1 -5 -2 -9 -4 -10 -1 -2 -3 -10 -5 -18 -5 -23
-45 -151 -60 -190 -15 -41 -98 -300 -101 -316 -1 -9 -63 -198 -93 -289 -6 -16
-22 -68 -37 -115 -14 -47 -29 -94 -33 -105 -5 -11 -14 -40 -22 -64 -8 -25 -19
-46 -25 -48 -5 -2 -18 23 -28 54 -9 32 -37 119 -61 193 -23 74 -69 216 -100
315 -31 99 -68 214 -82 255 -13 41 -26 82 -28 90 -2 8 -8 27 -14 43 -6 15 -8
27 -5 27 4 0 2 6 -3 13 -6 6 -22 48 -35 92 -89 282 -111 345 -125 357 -11 9
-52 13 -137 14 -67 1 -128 -1 -136 -4z"/>
</g>
</svg>
